<?xml version="1.0" encoding="utf-8"?>
<!-- Generator: Adobe Illustrator 23.0.3, SVG Export Plug-In . SVG Version: 6.00 Build 0)  -->
<svg version="1.1" xmlns="http://www.w3.org/2000/svg" xmlns:xlink="http://www.w3.org/1999/xlink" x="0px" y="0px"
	 viewBox="0 0 1920 1080" style="enable-background:new 0 0 1920 1080;" xml:space="preserve">
<style type="text/css">
	.st0{fill:url(#SVGID_1_);}
	.st1{fill:#404F60;}
	.st2{fill:#F2CAB3;}
	.st3{fill:#FFE4CA;}
	.st4{fill:#FFFFFF;}
	.st5{fill:#30251D;}
	.st6{fill:#3A1E07;stroke:#30251D;stroke-miterlimit:10;}
	.st7{fill:#33312F;}
	.st8{fill:#E0E0E0;}
	.st9{fill:#F7F7F7;}
</style>
<g id="Layer_1">
	<g>
		<linearGradient id="SVGID_1_" gradientUnits="userSpaceOnUse" x1="1164.2708" y1="704.2795" x2="1866.47" y2="1329.0566">
			<stop  offset="0" style="stop-color:#FFFFFF"/>
			<stop  offset="0.2614" style="stop-color:#FDFDFD"/>
			<stop  offset="0.3989" style="stop-color:#F5F5F5"/>
			<stop  offset="0.5075" style="stop-color:#E7E7E7"/>
			<stop  offset="0.6011" style="stop-color:#D4D4D4"/>
			<stop  offset="0.6849" style="stop-color:#BBBBBB"/>
			<stop  offset="0.7619" style="stop-color:#9D9D9D"/>
			<stop  offset="0.8336" style="stop-color:#787878"/>
			<stop  offset="0.901" style="stop-color:#4E4E4E"/>
			<stop  offset="0.9628" style="stop-color:#202020"/>
			<stop  offset="1" style="stop-color:#000000"/>
		</linearGradient>
		<path class="st0" d="M1857.2,441c0-301.5-249.6-405.5-771.7-251C869.1,254,255,583,255,804c0,301.6,263,298,871.7,211
			C1577,950.7,1857.2,742.5,1857.2,441z"/>
	</g>
	<g>
		<path class="st1" d="M378,924l4,159c0,0-256.6,10.8-249.5-6L159,959.3"/>
		<path class="st2" d="M423,647c-1.8,0,70.7,35.4,112,47c4.7,1.3,32-24,39-20c29.5,16.9,12,51,2,66s-31,15-31,15l-148.8,60.1
			c-12.5,8.9-30.1,3.1-35-11.5L363,653"/>
		<path class="st2" d="M338,504c0,0-17,74,6,77c12.4,1.6-16,29.5-49,29c-28.2-0.4-61-29-61-29l25-85"/>
		<g>
			<path class="st3" d="M338.8,533h-27.3c-47.8,0-86.5-38.7-86.5-86.5v-79.9c0-47.8,38.7-86.5,86.5-86.5h6
				c47.8,0,86.5,38.7,86.5,86.5l-9,92.5C395,495,374.8,533,338.8,533z"/>
		</g>
		<ellipse class="st4" cx="363" cy="394" rx="22" ry="28"/>
		<ellipse class="st4" cx="282" cy="398.5" rx="27" ry="32.5"/>
		<g>
			<path class="st5" d="M337.3,479.2c-2.5,2.1-5.6,3.7-8.7,4.9c-3.2,1.1-6.5,1.8-9.8,2.2c-3.3,0.4-6.7,0.5-10,0.5s-6.6,0-10-0.2
				c-3.3-0.2-6.7-0.6-10-1.5s-6.6-2.1-9.4-4.1c-2.9-1.9-5.3-4.5-7-7.5s-2.5-6.5-2.1-9.8c0.3,3.3,1.5,6.4,3.4,9s4.3,4.7,7,6.3
				c2.7,1.6,5.7,2.7,8.8,3.4c3.1,0.7,6.3,1.1,9.5,1.3c3.2,0.2,6.5,0.3,9.8,0.4s6.5,0.1,9.8,0c3.2-0.2,6.5-0.5,9.6-1.2
				C331.3,481.9,334.4,480.8,337.3,479.2z"/>
		</g>
		<g>
			<path class="st5" d="M266,473c0-1.7,0.4-3.4,1-4.9c0.6-1.6,1.5-3.1,2.7-4.4c1.1-1.3,2.6-2.4,4.2-3.1s3.4-1,5.1-0.5
				c-3.3,0.8-5.7,2.6-7.8,4.9c-1,1.1-1.9,2.4-2.8,3.7C267.6,470.1,266.8,471.5,266,473z"/>
		</g>
		<ellipse class="st6" cx="291.5" cy="416.5" rx="7" ry="9"/>
		<ellipse class="st6" cx="370.5" cy="407.5" rx="7" ry="9"/>
		<g>
			<path class="st5" d="M335.8,393.4l1.6,9.7c0.6,3.2,1.1,6.4,1.8,9.6c0.6,3.2,1.4,6.4,2.1,9.5l2.4,9.6c-1.5-2.9-2.8-6-3.9-9.1
				s-1.9-6.3-2.6-9.6c-0.7-3.2-1.2-6.5-1.4-9.8C335.6,400,335.5,396.7,335.8,393.4z"/>
		</g>
		<g>
			<path class="st5" d="M343,429.5c0.9,1.3,1.7,2.6,2.2,4.1c0.3,0.8,0.4,1.6,0.5,2.5c0,0.9-0.1,1.8-0.4,2.6
				c-0.3,0.8-0.7,1.6-1.1,2.2c-0.4,0.7-0.8,1.3-1.3,1.9c-0.9,1.3-1.8,2.5-2.8,3.7c-1.9,2.4-4,4.6-6.3,6.6s-4.7,3.9-7.4,5.4
				c1.8-2.5,3.8-4.8,5.7-7l5.7-6.9l2.8-3.5c0.9-1.2,1.9-2.3,2.5-3.4s0.8-2.4,0.7-3.8C343.6,432.5,343.3,431,343,429.5z"/>
		</g>
		<path class="st7" d="M244.5,377.5l65-17c0,0-4.5-11.5-21-8S244.5,377.5,244.5,377.5z"/>
		<path class="st7" d="M344,364l51-12c0,0-39-4-47-2S344,364,344,364z"/>
		<path class="st7" d="M327,337c40,10,63.6,3.8,77,0c9.7-2.8,18.9-8.1,26.2-13.4c8.5-6.2,14.3-12.4,14.8-14.6c0.5-1.9-27-15.7-45-11
			c-23,6,51.7-7.2,47-11c-9.1-7.4-15-23.3-29-32c-18.3-11.4-29-38-55-40s-59.6-17.1-129,18c-33.1,16.7-39,61-39,61s-32,8-31,63
			c0.1,3.5,18.8,14.2,23,36c5,26.5,20.5,47.5,32,42c1.4-0.6-3.2-27.4-2-28c17-8.1,27.7,11.8,24-6c-4-19-6-50,9-49s4-9,20-30
			S287,327,327,337z"/>
		<path class="st3" d="M230,387c0,0-26-13-26,14c0,41,26,40,26,40"/>
		<path class="st7" d="M163.4,978.7l211.2-18.9c11.4-1,19.9-10.9,19.1-22.3L395,738c-0.9-13.7,3.5-33.5,17-31l12-6
			c16.5,3.1,35.4-44.8,28.8-60.2C439.1,609.1,361,585,361,585s-22.8-5-24-5c0,0-19,26-51,20s-51-27-51-27c-1.8,0-10.2-0.8-12-1
			c-27.7-3-132.6-7.6-103.9,111.3c1.4,5.7,6.5,9.7,12.3,9.7h16c7.3,0,13.1,6.2,12.7,13.5c-1.1,17.8-3.1,65.2-5.4,121.8
			c-1.7,43.4-3.6,92.2-5.3,137.3C149.2,973.2,155.7,979.4,163.4,978.7z"/>
		<path class="st8" d="M418.4,753l32.8-128c2.3-8.9,10.3-15.1,19.4-15.1h85.7c13.1,0,22.6,12.3,19.4,25l-32.8,128
			c-2.3,8.9-10.2,15.1-19.4,15.1h-85.7C424.7,778,415.2,765.7,418.4,753z"/>
		<path class="st3" d="M126.8,693L252,821l178-49c0,0,38-10,39-21s0-43,0-43s29-22-22-14s-62,21.3-62,21.3s-1.2,22.1-16,30.7
			c-15.5,9-60.3-0.3-92,11c-31,11-37-24.5-52-49s-39-38-39-38"/>
	</g>
</g>
<g id="Layer_2">
	<polygon class="st9" points="664.2,531.5 606.2,485.1 534.8,574.5 571.9,604.2 	"/>
	<polygon class="st9" points="825.4,551.6 813.6,497.9 708.5,543 694.5,585.5 	"/>
	<polygon class="st9" points="788.4,180.9 715.2,168.2 695.6,280.9 694.5,315.8 	"/>
	<polygon class="st9" points="693.9,687.5 715.5,616.4 589.2,638.6 582.4,660.8 	"/>
	<rect x="704.8" y="374.6" transform="matrix(0.5 0.866 -0.866 0.5 744.9451 -426.6826)" class="st9" width="74.3" height="114.4"/>
	
		<rect x="804.7" y="222.9" transform="matrix(0.8079 0.5893 -0.5893 0.8079 326.7557 -442.2699)" class="st9" width="74.3" height="114.4"/>
	
		<rect x="891.4" y="368.3" transform="matrix(0.5702 0.8215 -0.8215 0.5702 748.673 -579.9246)" class="st9" width="74.3" height="114.4"/>
	<polygon class="st9" points="915.3,703.3 915.3,629 800.9,629 769.8,677.1 	"/>
	<polygon class="st9" points="704.2,360.1 644.5,315.8 590.3,444 636,451.9 	"/>
</g>
</svg>
