<?xml version="1.0" encoding="utf-8"?>
<!-- Generator: Adobe Illustrator 23.0.3, SVG Export Plug-In . SVG Version: 6.00 Build 0)  -->
<svg version="1.1" id="Layer_1" xmlns="http://www.w3.org/2000/svg" xmlns:xlink="http://www.w3.org/1999/xlink" x="0px" y="0px"
	 viewBox="0 0 300 300" style="enable-background:new 0 0 300 300;" xml:space="preserve">
<style type="text/css">
	.st0{fill:#444B56;}
	.st1{fill:#8C8C8C;}
	.st2{fill:#C9C9C9;}
	.st3{fill:#30251D;}
</style>
<rect class="st0" width="300" height="300"/>
<path class="st1" d="M184,223c0,0-17,74,6,77H80l25-85"/>
<g>
	<path class="st2" d="M174.8,258h-27.3C99.7,258,61,219.3,61,171.5V91.6c0-47.8,38.7-86.5,86.5-86.5h6c47.8,0,86.5,38.7,86.5,86.5
		l-9,92.5C231,220,210.8,258,174.8,258z"/>
</g>
<g>
	<path class="st3" d="M173.3,200.2c-2.5,2.1-5.6,3.7-8.7,4.9c-3.2,1.1-6.5,1.8-9.8,2.2c-3.3,0.4-6.7,0.5-10,0.5s-6.6,0-10-0.2
		c-3.3-0.2-6.7-0.6-10-1.5s-6.6-2.1-9.4-4.1c-2.9-1.9-5.3-4.5-7-7.5s-2.5-6.5-2.1-9.8c0.3,3.3,1.5,6.4,3.4,9s4.3,4.7,7,6.3
		c2.7,1.6,5.7,2.7,8.8,3.4c3.1,0.7,6.3,1.1,9.5,1.3c3.2,0.2,6.5,0.3,9.8,0.4s6.5,0.1,9.8,0c3.2-0.2,6.5-0.5,9.6-1.2
		C167.3,202.9,170.4,201.8,173.3,200.2z"/>
</g>
<g>
	<path class="st3" d="M102,194c0-1.7,0.4-3.4,1-4.9c0.6-1.6,1.5-3.1,2.7-4.4c1.1-1.3,2.6-2.4,4.2-3.1s3.4-1,5.1-0.5
		c-3.3,0.8-5.7,2.6-7.8,4.9c-1,1.1-1.9,2.4-2.8,3.7C103.6,191.1,102.8,192.5,102,194z"/>
</g>
<g>
	<path class="st3" d="M171.8,114.4l1.6,9.7c0.6,3.2,1.1,6.4,1.8,9.6c0.6,3.2,1.4,6.4,2.1,9.5l2.4,9.6c-1.5-2.9-2.8-6-3.9-9.1
		s-1.9-6.3-2.6-9.6c-0.7-3.2-1.2-6.5-1.4-9.8C171.6,121,171.5,117.7,171.8,114.4z"/>
</g>
<g>
	<path class="st3" d="M179,150.5c0.9,1.3,1.7,2.6,2.2,4.1c0.3,0.8,0.4,1.6,0.5,2.5c0,0.9-0.1,1.8-0.4,2.6c-0.3,0.8-0.7,1.6-1.1,2.2
		c-0.4,0.7-0.8,1.3-1.3,1.9c-0.9,1.3-1.8,2.5-2.8,3.7c-1.9,2.4-4,4.6-6.3,6.6s-4.7,3.9-7.4,5.4c1.8-2.5,3.8-4.8,5.7-7l5.7-6.9
		l2.8-3.5c0.9-1.2,1.9-2.3,2.5-3.4s0.8-2.4,0.7-3.8C179.6,153.5,179.3,152,179,150.5z"/>
</g>
<path class="st2" d="M66,108c0,0-26-13-26,14c0,41,26,40,26,40V108z"/>
<path class="st2" d="M224,116.73c0,0,31-11.36,31,12.24c0,35.84-31,34.96-31,34.96V116.73z"/>
</svg>
