<?xml version="1.0" encoding="utf-8"?>
<!-- Generator: Adobe Illustrator 23.0.3, SVG Export Plug-In . SVG Version: 6.00 Build 0)  -->
<svg version="1.1" id="Layer_1" xmlns="http://www.w3.org/2000/svg" xmlns:xlink="http://www.w3.org/1999/xlink" x="0px" y="0px"
	 viewBox="0 0 227.7 38" style="enable-background:new 0 0 227.7 38;" xml:space="preserve">
<style type="text/css">
	.st0{fill:#444B56;}
	.st1{fill:#E5AC53;}
	.st2{fill:none;}
</style>
<g id="XMLID_12_">
	<path id="XMLID_10_" class="st0" d="M48,19.2v15.1c0,2,1.7,3.7,3.7,3.7c2.1,0,3.8-1.7,3.8-3.7V14.4C53.8,16.8,51.1,18.6,48,19.2z"
		/>
	<path id="XMLID_9_" class="st1" d="M49.7,14.8c2-0.6,3.8-2,4.8-3.9c0.1-0.2,0.2-0.5,0.4-0.7c0.4-0.9,0.6-2.6,0.6-3.6V3.8
		c0-2.1-1.7-3.8-3.8-3.8c-2,0-3.7,1.7-3.7,3.8v11.3C48.6,15,49.1,14.9,49.7,14.8z"/>
	<path id="XMLID_21_" class="st0" d="M30.6,5.1L19.2,35.4c-0.6,1.5-2,2.5-3.6,2.5c-0.1,0-0.1,0-0.1,0c-1.6,0-3-1.1-3.6-2.5L0.7,5.1
		c-0.8-2,0.2-4.2,2.2-4.8c2-0.8,4.1,0.2,4.8,2.2l7.9,21.1l7.9-21.1c0.8-2,2.9-3,4.8-2.2C30.4,1,31.3,3.2,30.6,5.1z"/>
	<path id="XMLID_19_" class="st0" d="M108.1,3.7c0,2-1.7,3.8-3.8,3.8C98,7.5,92.8,12.6,92.8,19v15.2c0,2-1.7,3.8-3.7,3.8
		c-2.1,0-3.8-1.7-3.8-3.8V19c0-10.5,8.6-19,19-19C106.4,0,108.1,1.7,108.1,3.7z"/>
	<path id="XMLID_6_" class="st0" d="M78.8,30.5c-6.4,0-11.5-5.1-11.5-11.5v-4h5.4c2.1,0,3.8-1.7,3.8-3.8c0-2-1.7-3.7-3.8-3.7h-5.4
		V3.8c0-2-1.7-3.8-3.7-3.8c-2.1,0-3.8,1.7-3.8,3.8V19c0,10.5,8.6,19,19,19c2.1,0,3.8-1.7,3.8-3.7C82.6,32.2,80.9,30.5,78.8,30.5z"/>
	<path id="XMLID_5_" class="st2" d="M126.6,0.1c-0.1,0-0.1,0-0.2,0c-0.2,0-0.3,0-0.5,0C126.1,0.1,126.3,0.1,126.6,0.1z"/>
	<path id="XMLID_4_" class="st0" d="M35.5,14.3v20c0,2,1.7,3.7,3.8,3.7c2,0,3.7-1.7,3.7-3.7V19.2C39.8,18.6,37.1,16.8,35.5,14.3z"/>
	<path id="XMLID_3_" class="st1" d="M41.3,14.8c-2-0.6-3.8-2-4.8-3.9c-0.1-0.2-0.2-0.5-0.4-0.7c-0.4-0.9-0.6-1.8-0.6-2.8l0,0V3.8
		c0-2.1,1.7-3.8,3.8-3.8c2,0,3.7,1.7,3.7,3.8v11.3C42.4,15.1,41.8,15,41.3,14.8z"/>
	<path id="XMLID_2_" class="st0" d="M126.8,30.5c-6.4,0-11.7-4.8-11.7-11.2c0-6.3,5.2-11.5,11.4-11.7h0.1c0.1,0,0.2,0,0.2,0h0.1
		c0.1,0,0.1,0,0.2,0c2.2,0.1,4.3,0.8,5.9,2l0,0c0.2-0.7,0.3-1.5,0.3-2.2c0-1.9-0.7-3.7-2-5c-1.2-1.2-2.9-2-4.6-2.1l0,0
		c-0.2,0-0.4,0-0.6,0c-0.1,0-0.3,0-0.4,0l0,0c-10.2,0.5-18.2,8.8-18.2,19.1c0,10.7,8.5,18.6,19.2,18.6c4.3,0,7.9-1.1,11.2-3.8V19.3
		C138,25.6,133.1,30.5,126.8,30.5z"/>
	<path id="XMLID_1_" class="st1" d="M134.9,1.9c1.1,1.6,1.7,3.6,1.7,5.6c0,1.6-0.4,3.1-1.1,4.4c1.4,1.9,2.3,4.3,2.4,6.8
		c0,0.2,0,0.3,0,0.5V34c0,2.2,2.1,3.8,3.6,3.8c2.2,0,3.8-1.6,3.8-3.8V19.3C145.4,11.5,141.2,4.9,134.9,1.9z"/>
</g>
<path id="XMLID_11_" class="st0" d="M179.7,14.3v20c0,2,1.7,3.7,3.8,3.7c2,0,3.7-1.7,3.7-3.7V19.2C184,18.6,181.3,16.8,179.7,14.3z"
	/>
<path id="XMLID_8_" class="st1" d="M185.5,14.8c-2-0.6-3.8-2-4.8-3.9c-0.1-0.2-0.2-0.5-0.4-0.7c-0.4-0.9-0.6-1.8-0.6-2.8l0,0V3.8
	c0-2.1,1.7-3.8,3.8-3.8c2,0,3.7,1.7,3.7,3.8v11.3C186.6,15.1,186,15,185.5,14.8z"/>
<path id="XMLID_7_" class="st0" d="M149.4,30.5c6.4,0,11.5-5.1,11.5-11.5v-4V7.5c0,0-5,1.2-5-1.9s2.6-1.9,4-2.8s2.7-2.8,4.7-2.8
	c2.1,0,3.8,1.7,3.8,3.8V3.6l7,0c0,0,3-0.5,3,3c0,3.4-3,2.9-3,2.9l-7,0.1v1.9c0,0,3.6,0.8,6,0.8s3,1.8,3,3.4s-1.2,3.4-3,3.5
	s-6-0.5-6-0.5V19c0,10.5-8.6,19-19,19c-2.1,0-3.8-1.7-3.8-3.7C145.6,32.2,147.3,30.5,149.4,30.5z"/>
<path id="XMLID_13_" class="st0" d="M78.8,30.5c-6.4,0-11.5-5.1-11.5-11.5v-4h5.4c2.1,0,3.8-1.7,3.8-3.8c0-2-1.7-3.7-3.8-3.7h-5.4
	V3.8c0-2-1.7-3.8-3.7-3.8c-2.1,0-3.8,1.7-3.8,3.8V19c0,10.5,8.6,19,19,19c2.1,0,3.8-1.7,3.8-3.7C82.6,32.2,80.9,30.5,78.8,30.5z"/>
<path class="st0" d="M175.4,3.6"/>
<path class="st0" d="M175.4,8.1"/>
<path class="st0" d="M175.4,3.6"/>
<path class="st0" d="M175.4,9.5"/>
<path id="XMLID_15_" class="st0" d="M207.5,30.1c-6.4,0-11.7-4.8-11.7-11.2c0-6.3,5.2-11.5,11.4-11.7h0.1c0.1,0,0.2,0,0.2,0h0.1
	c0.1,0,0.1,0,0.2,0c2.2,0.1,4.3,0.8,5.9,2l0,0c0.2-0.7,0.3-1.5,0.3-2.2c0-1.9-0.7-3.7-2-5c-1.2-1.2-2.9-2-4.6-2.1l0,0
	c-0.2,0-0.4,0-0.6,0c-0.1,0-0.3,0-0.4,0l0,0c-10.2,0.5-18.2,8.8-18.2,19.1c0,10.7,8.5,18.6,19.2,18.6c4.3,0,7.9-1.1,11.2-3.8V18.9
	C218.7,25.2,213.8,30.1,207.5,30.1z"/>
<path id="XMLID_16_" class="st1" d="M218.6,33.6c0,0,2.8-1.8,5-4.9c2.8-3.9,2.4-9.8,2.4-9.8c0.1-7.8-4.1-14.4-10.4-17.4
	c1.1,1.6,1.7,3.6,1.7,5.6c0,1.6-0.4,3.1-1.1,4.4c1.4,1.9,2.3,4.3,2.4,6.8c0,0.2,0,0.3,0,0.5V33.6"/>
</svg>
